<!-- Generator: Adobe Illustrator 22.0.1, SVG Export Plug-In  -->
<svg version="1.1"
	 xmlns="http://www.w3.org/2000/svg" xmlns:xlink="http://www.w3.org/1999/xlink" xmlns:a="http://ns.adobe.com/AdobeSVGViewerExtensions/3.0/"
	 x="0px" y="0px" width="438px" height="390.1px" viewBox="0 0 438 390.1"
	 style="overflow:scroll;enable-background:new 0 0 438 390.1;" xml:space="preserve">
<style type="text/css">
	.st0{fill:#FFA100;}
</style>
<defs>
</defs>
<g>
	<path class="st0" d="M432.5,369.8c-7.3,12.7-20.5,20.3-35.2,20.3H40.7c-14.7,0-27.8-7.6-35.2-20.3c-7.4-12.7-7.4-27.9,0-40.6
		L183.8,20.3c3.7-6.4,8.8-11.4,14.8-14.9c6-3.5,13-5.4,20.3-5.4c14.7,0,27.8,7.6,35.2,20.3l178.3,308.9
		C439.8,341.9,439.8,357.1,432.5,369.8z"/>
	<g>
		<path d="M432.5,329.2L254.2,20.3C246.8,7.6,233.7,0,219,0c-7.3,0-14.3,1.9-20.3,5.4c-6,3.5-11.2,8.6-14.8,14.9L5.5,329.2
			c-7.4,12.7-7.4,27.9,0,40.6c7.3,12.7,20.5,20.3,35.2,20.3h356.7c14.7,0,27.8-7.6,35.2-20.3C439.8,357.1,439.8,341.9,432.5,329.2z
			 M413.6,358.9c-3.4,5.9-9.5,9.4-16.3,9.4H40.7c-6.8,0-12.9-3.5-16.3-9.4c-3.4-5.9-3.4-12.9,0-18.9L202.7,31.2
			c3.4-5.9,9.5-9.4,16.3-9.4c6.8,0,12.9,3.5,16.3,9.4l178.3,308.9C417.1,346,417.1,353,413.6,358.9z"/>
	</g>
	<g>
		<path d="M219,268.4c-6.5,0-11.7-4.1-11.7-9.1V96.2c0-5.1,5.2-9.1,11.7-9.1c6.5,0,11.7,4.1,11.7,9.1v163.1
			C230.7,264.3,225.5,268.4,219,268.4z"/>
	</g>
	<circle cx="219" cy="314.1" r="14.8"/>
</g>
</svg>
