<!-- Generator: Adobe Illustrator 22.0.1, SVG Export Plug-In  -->
<svg version="1.1"
	 xmlns="http://www.w3.org/2000/svg" xmlns:xlink="http://www.w3.org/1999/xlink" xmlns:a="http://ns.adobe.com/AdobeSVGViewerExtensions/3.0/"
	 x="0px" y="0px" width="227.3px" height="467.9px" viewBox="0 0 227.3 467.9"
	 style="overflow:scroll;enable-background:new 0 0 227.3 467.9;" xml:space="preserve">
<defs>
</defs>
<g>
	<path d="M131.6,56.7H78.4c-8.3,0-15-6.7-15-15V15c0-8.3,6.7-15,15-15h53.2c8.3,0,15,6.7,15,15v26.7C146.6,50,139.9,56.7,131.6,56.7
		z"/>
	<rect x="49" y="167.9" width="112.8" height="77"/>
	<polygon points="227.3,279 187.1,354.6 225.7,354.6 129.1,452.8 169.4,373.9 138.8,373.9 185.5,279 	"/>
	<polygon points="161.8,304.4 161.8,254.9 49,254.9 49,331.9 148.3,331.9 	"/>
	<polygon points="153,383.9 122.7,383.9 143.4,341.9 49,341.9 49,418.9 135.2,418.9 	"/>
	<g>
		<path d="M173.9,421.5v10.2h-10.1l-35.5,36.1H185c13.8,0,25-11.2,25-25v-58L173.9,421.5z"/>
		<polygon points="210,344.6 210,332.8 203.7,344.6 		"/>
		<path d="M128.6,431.8H36.1V64h137.8v215.9l5.3-10.9H210V52.9c0-13.8-11.2-25-25-25H25c-13.8,0-25,11.2-25,25v390
			c0,13.8,11.2,25,25,25h85.2L128.6,431.8z"/>
	</g>
</g>
</svg>
