<!-- Generator: Adobe Illustrator 22.0.1, SVG Export Plug-In  -->
<svg version="1.1"
	 xmlns="http://www.w3.org/2000/svg" xmlns:xlink="http://www.w3.org/1999/xlink" xmlns:a="http://ns.adobe.com/AdobeSVGViewerExtensions/3.0/"
	 x="0px" y="0px" width="122.4px" height="489px" viewBox="0 0 122.4 489"
	 style="overflow:scroll;enable-background:new 0 0 122.4 489;" xml:space="preserve">
<style type="text/css">
	.st0{fill:#FFFFFF;}
</style>
<defs>
</defs>
<g>
	<rect x="17.9" y="157.5" class="st0" width="83.9" height="306.6"/>
	<path d="M60.9,448.4h-2.2c-6.1,0-11-4.9-11-11V258.9h24.2v178.5C71.9,443.5,67,448.4,60.9,448.4z"/>
	<path d="M60.7,157.8c20.1,0,36.4,16.3,36.4,36.4v234.1c0,20.1-16.3,36.4-36.4,36.4s-36.4-16.3-36.4-36.4V194.2
		C24.3,174.2,40.6,157.8,60.7,157.8 M60.7,133.6C27.2,133.6,0,160.7,0,194.2v234.1C0,461.8,27.2,489,60.7,489s60.7-27.2,60.7-60.7
		V194.2C121.3,160.7,94.1,133.6,60.7,133.6L60.7,133.6z"/>
	<path d="M74.7,139.6h-26c-5.4,0-9.8-4.4-9.8-9.8v-10.4c0-5.4,4.4-9.8,9.8-9.8h26c5.4,0,9.8,4.4,9.8,9.8v10.4
		C84.5,135.2,80.1,139.6,74.7,139.6z"/>
	<path d="M63.1,16.2c23.8,0,43.2,19.4,43.2,43.2s-19.4,43.2-43.2,43.2S19.9,83.2,19.9,59.4S39.3,16.2,63.1,16.2 M63.1,0
		C30.3,0,3.7,26.6,3.7,59.4s26.6,59.4,59.4,59.4c32.8,0,59.4-26.6,59.4-59.4S95.9,0,63.1,0L63.1,0z"/>
	<g>
		<path d="M35.2,197.4H8.8c-3.8,0-7-3.1-7-7V189c0-3.9,3.1-7,7-7h26.4c3.8,0,7,3.1,7,7v1.4C42.2,194.3,39.1,197.4,35.2,197.4z"/>
		<path d="M35.2,258.4H8.8c-3.8,0-7-3.2-7-7V250c0-3.8,3.1-7,7-7h26.4c3.8,0,7,3.1,7,7v1.4C42.2,255.2,39.1,258.4,35.2,258.4z"/>
		<path d="M35.2,319.4H8.8c-3.8,0-7-3.1-7-7V311c0-3.9,3.1-7,7-7h26.4c3.8,0,7,3.1,7,7v1.4C42.2,316.2,39.1,319.4,35.2,319.4z"/>
		<path d="M35.2,380.4H8.8c-3.8,0-7-3.1-7-7V372c0-3.9,3.1-7,7-7h26.4c3.8,0,7,3.1,7,7v1.4C42.2,377.2,39.1,380.4,35.2,380.4z"/>
		<path d="M35.2,441.3H8.8c-3.8,0-7-3.1-7-7V433c0-3.8,3.1-7,7-7h26.4c3.8,0,7,3.1,7,7v1.4C42.2,438.2,39.1,441.3,35.2,441.3z"/>
	</g>
</g>
</svg>
