<?xml version="1.0" encoding="utf-8"?>
<!-- Generator: Adobe Illustrator 22.0.1, SVG Export Plug-In . SVG Version: 6.00 Build 0)  -->
<svg version="1.1" id="Capa_1" xmlns="http://www.w3.org/2000/svg" xmlns:xlink="http://www.w3.org/1999/xlink" x="0px" y="0px"
	 viewBox="0 0 292.4 292.4" style="enable-background:new 0 0 292.4 292.4;" xml:space="preserve">
<style type="text/css">
	.st0{fill:#FFA100;}
	.st1{fill:#F04141;}
</style>
<g>
	<path class="st0" d="M286.9,197.3L159,69.4c-3.6-3.6-7.9-5.4-12.8-5.4s-9.2,1.8-12.9,5.4L5.4,197.3c-3.6,3.6-5.4,7.9-5.4,12.8
		s1.8,9.2,5.4,12.8c3.6,3.6,7.9,5.4,12.9,5.4h255.8c4.9,0,9.2-1.8,12.8-5.4c3.6-3.6,5.4-7.9,5.4-12.8S290.5,200.9,286.9,197.3z"/>
</g>
<g>
	<path class="st1" d="M-310.1,197.3L-438,69.4c-3.6-3.6-7.9-5.4-12.8-5.4s-9.2,1.8-12.9,5.4l-127.9,127.9c-3.6,3.6-5.4,7.9-5.4,12.8
		s1.8,9.2,5.4,12.8c3.6,3.6,7.9,5.4,12.8,5.4h255.8c4.9,0,9.2-1.8,12.8-5.4c3.6-3.6,5.4-7.9,5.4-12.8S-306.5,200.9-310.1,197.3z"/>
</g>
</svg>
