<!-- Generator: Adobe Illustrator 22.0.1, SVG Export Plug-In  -->
<svg version="1.1"
	 xmlns="http://www.w3.org/2000/svg" xmlns:xlink="http://www.w3.org/1999/xlink" xmlns:a="http://ns.adobe.com/AdobeSVGViewerExtensions/3.0/"
	 x="0px" y="0px" width="466px" height="466px" viewBox="0 0 466 466" style="overflow:scroll;enable-background:new 0 0 466 466;"
	 xml:space="preserve">
<defs>
</defs>
<g>
	<path d="M233,36c52.6,0,102.1,20.5,139.3,57.7S430,180.4,430,233c0,52.6-20.5,102.1-57.7,139.3C335.1,409.5,285.6,430,233,430
		s-102.1-20.5-139.3-57.7C56.5,335.1,36,285.6,36,233c0-52.6,20.5-102.1,57.7-139.3C130.9,56.5,180.4,36,233,36 M233,0
		C104.3,0,0,104.3,0,233c0,128.7,104.3,233,233,233s233-104.3,233-233C466,104.3,361.7,0,233,0L233,0z"/>
</g>
<g>
	<g>
		<path d="M204,157.9c0,42.1-15.6,65.3-43.1,65.3c-24.2,0-40.6-22.7-41-63.6c0-41.5,17.9-64.4,43.1-64.4
			C189.2,95.2,204,118.5,204,157.9z M136.8,159.8c0,32.2,9.9,50.5,25.1,50.5c17.1,0,25.3-20,25.3-51.6c0-30.5-7.8-50.5-25.1-50.5
			C147.4,108.2,136.8,126.1,136.8,159.8z"/>
	</g>
	<g>
		<path d="M346,305.4c0,42.1-15.6,65.3-43.1,65.3c-24.2,0-40.6-22.7-41-63.6c0-41.5,17.9-64.4,43.1-64.4
			C331.1,242.8,346,266,346,305.4z M278.7,307.3c0,32.2,9.9,50.5,25.1,50.5c17.1,0,25.3-20,25.3-51.6c0-30.5-7.8-50.5-25.1-50.5
			C289.4,255.7,278.7,273.6,278.7,307.3z"/>
	</g>
	<g>
		<line x1="305.8" y1="109.3" x2="160.2" y2="361.4"/>
		<path d="M162.8,371.1c-2.5,0.7-5.2,0.4-7.6-1c-4.8-2.8-6.5-8.9-3.7-13.7l145.7-252.1c2.8-4.8,8.9-6.5,13.7-3.7
			c4.8,2.8,6.5,8.9,3.7,13.7L168.9,366.4C167.5,368.8,165.2,370.4,162.8,371.1z"/>
	</g>
</g>
</svg>
