<!-- Generator: Adobe Illustrator 22.0.1, SVG Export Plug-In  -->
<svg version="1.1"
	 xmlns="http://www.w3.org/2000/svg" xmlns:xlink="http://www.w3.org/1999/xlink" xmlns:a="http://ns.adobe.com/AdobeSVGViewerExtensions/3.0/"
	 x="0px" y="0px" width="121.3px" height="478.5px" viewBox="0 0 121.3 478.5"
	 style="overflow:scroll;enable-background:new 0 0 121.3 478.5;" xml:space="preserve">
<defs>
</defs>
<g>
	<path d="M60.9,437.9h-2.2c-6.1,0-11-4.9-11-11V248.4h24.2v178.5C71.9,433,67,437.9,60.9,437.9z"/>
	<path d="M60.7,147.3c20.1,0,36.4,16.3,36.4,36.4v234.1c0,20.1-16.3,36.4-36.4,36.4s-36.4-16.3-36.4-36.4V183.7
		C24.3,163.7,40.6,147.3,60.7,147.3 M60.7,123.1C27.2,123.1,0,150.2,0,183.7v234.1c0,33.5,27.2,60.7,60.7,60.7s60.7-27.2,60.7-60.7
		V183.7C121.3,150.2,94.1,123.1,60.7,123.1L60.7,123.1z"/>
	<path d="M74.7,129.1h-26c-5.4,0-9.8-4.4-9.8-9.8v-10.4c0-5.4,4.4-9.8,9.8-9.8h26c5.4,0,9.8,4.4,9.8,9.8v10.4
		C84.5,124.7,80.1,129.1,74.7,129.1z"/>
	<g>
		<path d="M35.2,186.9H8.8c-3.8,0-7-3.1-7-7v-1.4c0-3.8,3.1-7,7-7h26.4c3.8,0,7,3.1,7,7v1.4C42.2,183.8,39.1,186.9,35.2,186.9z"/>
		<path d="M35.2,247.9H8.8c-3.8,0-7-3.1-7-7v-1.4c0-3.8,3.1-7,7-7h26.4c3.8,0,7,3.2,7,7v1.4C42.2,244.8,39.1,247.9,35.2,247.9z"/>
		<path d="M35.2,308.9H8.8c-3.8,0-7-3.1-7-7v-1.4c0-3.8,3.1-7,7-7h26.4c3.8,0,7,3.1,7,7v1.4C42.2,305.7,39.1,308.9,35.2,308.9z"/>
		<path d="M35.2,369.9H8.8c-3.8,0-7-3.1-7-7v-1.4c0-3.9,3.1-7,7-7h26.4c3.8,0,7,3.1,7,7v1.4C42.2,366.7,39.1,369.9,35.2,369.9z"/>
		<path d="M35.2,430.8H8.8c-3.8,0-7-3.2-7-7v-1.4c0-3.9,3.1-7,7-7h26.4c3.8,0,7,3.1,7,7v1.4C42.2,427.7,39.1,430.8,35.2,430.8z"/>
	</g>
	<g>
		<path d="M64.2,23c18.7,0,34,15.3,34,34S83,91,64.2,91c-18.7,0-34-15.3-34-34S45.5,23,64.2,23 M64.2,0c-31.5,0-57,25.5-57,57
			s25.5,57,57,57s57-25.5,57-57S95.7,0,64.2,0L64.2,0z"/>
	</g>
</g>
</svg>
