<svg height="512pt" viewBox="0 0 512 512" width="512pt" xmlns="http://www.w3.org/2000/svg"><path d="m255.996094 286.671875c-15.625 0-30.726563-2.289063-45-6.527344v51.855469h90.003906v-51.855469c-14.273438 4.238281-29.375 6.527344-45.003906 6.527344zm0 0"/><path d="m240.996094 177.878906c0 6.847656 6.730468 12.457032 15 12.457032 8.273437 0 15-5.609376 15-12.5-.210938-5.691407-7.957032-22.304688-15-35.324219-7.039063 13.023437-14.789063 29.644531-15 35.367187zm0 0"/><path d="m255.996094 0c-70.761719 0-128.335938 57.570312-128.335938 128.335938 0 70.761718 57.574219 128.335937 128.335938 128.335937 70.765625 0 128.339844-57.574219 128.339844-128.335937-.003907-70.765626-57.574219-128.335938-128.339844-128.335938zm0 220.335938c-24.8125 0-45-19.066407-45-42.5 0-9.207032 5.238281-23.964844 15.5625-43.855469 3.617187-6.96875 7.457031-13.726563 10.804687-19.027344 4.542969-7.1875 9.238281-14.617187 18.632813-14.617187 9.398437 0 14.09375 7.433593 18.636718 14.617187 3.351563 5.304687 7.1875 12.058594 10.804688 19.027344 10.324219 19.890625 15.5625 34.648437 15.5625 43.855469-.003906 23.433593-20.1875 42.5-45.003906 42.5zm75.363281-105.058594c-1.777344.6875-3.605469 1.011718-5.40625 1.011718-6.015625 0-11.691406-3.644531-13.992187-9.59375-8.875-22.941406-31.363282-38.359374-55.964844-38.359374-24.574219 0-47.058594 15.394531-55.941406 38.3125-2.996094 7.722656-11.683594 11.558593-19.40625 8.5625-7.726563-2.992188-11.558594-11.683594-8.566407-19.40625 6.589844-16.996094 18.023438-31.425782 33.0625-41.726563 15.039063-10.296875 32.625-15.742187 50.851563-15.742187 18.246094 0 35.839844 5.453124 50.886718 15.765624 15.046876 10.316407 26.480469 24.761719 33.058594 41.777344 2.988282 7.726563-.855468 16.410156-8.582031 19.398438zm0 0"/><path d="m315.996094 362h-120c-8.28125 0-15 6.714844-15 15v120c0 8.285156 6.71875 15 15 15h120c8.285156 0 15-6.714844 15-15v-120c0-8.285156-6.714844-15-15-15zm0 0"/><path d="m497 392h-136.015625v90h136.015625c8.285156 0 15-6.714844 15-15v-60c0-8.285156-6.714844-15-15-15zm0 0"/><path d="m0 407v60c0 8.285156 6.714844 15 15 15h135.996094v-90h-135.996094c-8.285156 0-15 6.714844-15 15zm0 0"/></svg>