<!-- Generator: Adobe Illustrator 22.0.1, SVG Export Plug-In  -->
<svg version="1.1"
	 xmlns="http://www.w3.org/2000/svg" xmlns:xlink="http://www.w3.org/1999/xlink" xmlns:a="http://ns.adobe.com/AdobeSVGViewerExtensions/3.0/"
	 x="0px" y="0px" width="466px" height="466px" viewBox="0 0 466 466" style="overflow:scroll;enable-background:new 0 0 466 466;"
	 xml:space="preserve">
<defs>
</defs>
<g>
	<path d="M199,356.4c0,0.1,0,0.2,0,0.3c0.1,8.9,5.8,16.1,12.7,16.1l42.7,0c6.9,0,12.6-7.2,12.7-16.1c0-0.1,0-0.2,0-0.3L234.7,94.9
		c-0.3-2.2-3.5-2.2-3.8,0L199,356.4z"/>
</g>
<g>
	<path d="M233,36c52.6,0,102.1,20.5,139.3,57.7S430,180.4,430,233c0,52.6-20.5,102.1-57.7,139.3C335.1,409.5,285.6,430,233,430
		s-102.1-20.5-139.3-57.7C56.5,335.1,36,285.6,36,233c0-52.6,20.5-102.1,57.7-139.3C130.9,56.5,180.4,36,233,36 M233,0
		C104.3,0,0,104.3,0,233c0,128.7,104.3,233,233,233s233-104.3,233-233C466,104.3,361.7,0,233,0L233,0z"/>
</g>
<g>
	<g>
		<path d="M388.4,233c10,0,20.1,0,30.1,0c1.4,0,2.7-9.1,1.8-19.6c-2.7-32.7-12.2-60.7-26.5-83.9c-4.6-7.5-9.8-12.3-10.9-11.4
			c-8.1,6.2-16.2,12.4-24.3,18.7c-1.1,0.9,1.4,6.1,5.1,12.1c11.6,18.8,19.3,41.6,21.5,68.2C385.9,225.5,387,233,388.4,233z"/>
		<path d="M355.5,132.7c7.9-6.5,15.8-13,23.7-19.4c1.1-0.9-2.3-7.1-8.2-13.1c-18.3-18.7-40.5-32.7-64.6-41.9
			c-7.7-3-14.6-3.7-15.1-2.4c-3.2,9.6-6.3,19.2-9.5,28.8c-0.4,1.4,4.5,4,10.8,6.4c19.6,7.5,37.6,18.8,52.5,34.1
			C349.9,129.9,354.3,133.6,355.5,132.7z"/>
		<path d="M277.1,83.3c2.8-9.7,5.7-19.3,8.5-29c0.4-1.3-5.8-4.3-14-5.8c-25.4-4.8-51.9-4.8-77.3,0c-8.2,1.5-14.4,4.4-14,5.8
			c2.8,9.7,5.7,19.3,8.5,29c0.4,1.4,6.1,1,12.7-0.2c20.7-3.9,42.2-3.9,62.8,0C271,84.3,276.7,84.6,277.1,83.3z"/>
		<path d="M184.1,84.6c-3.2-9.6-6.3-19.2-9.5-28.8c-0.4-1.3-7.3-0.6-15.1,2.4c-24.1,9.2-46.3,23.2-64.6,41.9
			c-5.9,6-9.3,12.2-8.2,13.1c7.9,6.5,15.8,13,23.7,19.4c1.1,0.9,5.6-2.8,10.3-7.7c14.9-15.2,32.9-26.6,52.5-34.1
			C179.6,88.6,184.6,86,184.1,84.6z"/>
		<path d="M107.4,136.8c-8.1-6.2-16.2-12.4-24.3-18.7c-1.1-0.9-6.3,3.9-10.9,11.4c-14.3,23.2-23.7,51.2-26.5,83.9
			c-0.9,10.5,0.4,19.7,1.8,19.6c10,0,20.1,0,30.1,0c1.4,0,2.5-7.5,3.2-15.9c2.2-26.6,9.9-49.3,21.5-68.2
			C106,142.9,108.5,137.7,107.4,136.8z"/>
	</g>
</g>
</svg>
