<!-- Generator: Adobe Illustrator 22.0.1, SVG Export Plug-In  -->
<svg version="1.1"
	 xmlns="http://www.w3.org/2000/svg" xmlns:xlink="http://www.w3.org/1999/xlink" xmlns:a="http://ns.adobe.com/AdobeSVGViewerExtensions/3.0/"
	 x="0px" y="0px" width="438px" height="390.1px" viewBox="0 0 438 390.1"
	 style="overflow:scroll;enable-background:new 0 0 438 390.1;" xml:space="preserve">
<style type="text/css">
	.st0{fill:#F04141;}
	.st1{fill:#FFFFFF;}
</style>
<defs>
</defs>
<g>
	<path class="st0" d="M432.5,369.8c-7.3,12.7-20.5,20.3-35.2,20.3H40.7c-14.7,0-27.8-7.6-35.2-20.3c-7.4-12.7-7.4-27.9,0-40.6
		L183.8,20.3c3.7-6.4,8.8-11.4,14.8-14.9c6-3.5,13-5.4,20.3-5.4c14.7,0,27.8,7.6,35.2,20.3l178.3,308.9
		C439.8,341.9,439.8,357.1,432.5,369.8z"/>
	<g>
		<path class="st1" d="M218.3,268.4c-6.5,0-11.7-4.1-11.7-9.1V96.2c0-5.1,5.2-9.1,11.7-9.1c6.5,0,11.7,4.1,11.7,9.1v163.1
			C230,264.3,224.7,268.4,218.3,268.4z"/>
	</g>
	<circle class="st1" cx="218.3" cy="314.1" r="14.8"/>
</g>
</svg>
