<!-- Generator: Adobe Illustrator 22.0.1, SVG Export Plug-In  -->
<svg version="1.1"
	 xmlns="http://www.w3.org/2000/svg" xmlns:xlink="http://www.w3.org/1999/xlink" xmlns:a="http://ns.adobe.com/AdobeSVGViewerExtensions/3.0/"
	 x="0px" y="0px" width="183.1px" height="462px" viewBox="0 0 183.1 462"
	 style="overflow:scroll;enable-background:new 0 0 183.1 462;" xml:space="preserve">
<defs>
</defs>
<rect x="82.5" y="141.5" width="18" height="190.5"/>
<circle cx="90.8" cy="373.3" r="56.7"/>
<path d="M91.5,21.5c13.4,0,24.3,10.9,24.3,24.3v245.4v12.4l10.7,6.2c21.6,12.5,35.1,35.8,35.1,60.7c0,38.6-31.4,70.1-70.1,70.1
	s-70.1-31.4-70.1-70.1c0-24.9,13.4-48.2,35.1-60.7l10.7-6.2v-12.4V45.8C67.2,32.4,78.1,21.5,91.5,21.5 M91.5,0L91.5,0
	C66.3,0,45.8,20.5,45.8,45.8v245.4C18.4,307,0,336.6,0,370.5C0,421,41,462,91.5,462c50.6,0,91.5-41,91.5-91.5
	c0-33.9-18.4-63.4-45.8-79.3V45.8C137.3,20.5,116.8,0,91.5,0L91.5,0z"/>
<path d="M70.5,65.6H47.8c-3.8,0-7-3.1-7-7v0c0-3.8,3.1-7,7-7h22.8c3.8,0,7,3.1,7,7v0C77.5,62.5,74.4,65.6,70.5,65.6z"/>
<path d="M70.5,121.1H47.8c-3.8,0-7-3.2-7-7v0c0-3.8,3.1-7,7-7h22.8c3.8,0,7,3.1,7,7v0C77.5,118,74.4,121.1,70.5,121.1z"/>
<path d="M70.5,176.6H47.8c-3.8,0-7-3.1-7-7v0c0-3.8,3.1-7,7-7h22.8c3.8,0,7,3.1,7,7v0C77.5,173.5,74.4,176.6,70.5,176.6z"/>
<path d="M70.5,232.1H47.8c-3.8,0-7-3.1-7-7v0c0-3.8,3.1-7,7-7h22.8c3.8,0,7,3.1,7,7v0C77.5,229,74.4,232.1,70.5,232.1z"/>
<path d="M70.5,287.6H47.8c-3.8,0-7-3.1-7-7v0c0-3.8,3.1-7,7-7h22.8c3.8,0,7,3.2,7,7v0C77.5,284.5,74.4,287.6,70.5,287.6z"/>
</svg>
